<svg width="150" height="150" viewBox="0 0 150 150" fill="none" xmlns="http://www.w3.org/2000/svg">
  <!-- Transparent background; glyph only -->
  <path d="M97.8748 85.1666C102.079 85.1666 105.5 81.7455 105.5 77.5416V31.7916C105.5 27.5877 102.079 24.1666 97.8748 24.1666H31.7915C27.5876 24.1666 24.1665 27.5877 24.1665 31.7916V105.5L51.2759 85.1666H97.8748ZM47.8904 75L34.3332 85.1666V34.3333H95.3332V75H47.8904Z" fill="#5f6368"/>
  <path d="M118.208 54.6666H115.667V85.1717C115.667 90.7634 111.127 95.3028 105.551 95.3333H54.6665V97.875C54.6665 102.079 58.0876 105.5 62.2915 105.5H98.7238L125.833 125.833V62.2916C125.833 58.0877 122.412 54.6666 118.208 54.6666Z" fill="#5f6368"/>
</svg>
